#!OML:ASF F:\VICON\USERDATA\INSTALL\rory3\rory3.ASF
:FULLY-SPECIFIED
:DEGREES
782
root -16.5291 17.9594 10.2073 180.197 55.8341 173.577
lowerback 4.85865 0.996142 0.254434
upperback 2.03845 1.40384 1.04594
thorax -0.649841 0.722667 0.8547
lowerneck -5.46626 -1.73245 -5.8886
upperneck 20.9939 -0.938929 0.439139
head 7.38446 -0.569176 1.09651
rclavicle -5.26779e-014 1.59028e-015
rhumerus -31.5785 -0.36569 -79.9874
rradius 30.8988
rwrist -7.38174
rhand -12.3102 15.2401
rfingers 7.12502
rthumb 13.7581 -14.285
lclavicle -5.26779e-014 1.59028e-015
lhumerus -35.9535 -13.6437 91.0245
lradius 50.5804
lwrist 15.8925
lhand -4.80822 27.354
lfingers 7.12502
lthumb 20.9777 56.2395
rfemur -14.1819 1.40424 20.6311
rtibia 26.0718
rfoot -18.3298 -14.2997
rtoes -1.1375
lfemur -21.0002 -10.6261 -19.078
ltibia 28.3757
lfoot -11.7144 3.67753
ltoes -11.6021
783
root -16.5198 17.9604 10.2171 180.053 55.7166 173.336
lowerback 4.76454 0.981476 0.212663
upperback 2.02989 1.38138 1.07219
thorax -0.607493 0.710889 0.907945
lowerneck -5.56753 -1.77226 -5.9583
upperneck 21.0859 -0.959319 0.378198
head 7.43473 -0.589502 1.08678
rclavicle -1.45113e-014 -1.74931e-014
rhumerus -31.6562 -0.348335 -79.8418
rradius 30.7858
rwrist -7.36892
rhand -12.3338 15.146
rfingers 7.12502
rthumb 13.7353 -14.3806
lclavicle -1.45113e-014 -1.74931e-014
lhumerus -35.9381 -13.6742 91.1732
lradius 50.8965
lwrist 15.8989
lhand -4.88394 27.4821
lfingers 7.12502
lthumb 20.9049 56.3757
rfemur -14.3013 1.41244 20.5298
rtibia 26.2164
rfoot -18.3884 -14.4989
rtoes -1.62932
lfemur -21.0936 -10.1263 -19.4976
ltibia 28.6103
lfoot -11.8078 4.52329
ltoes -12.758
784
root -16.5091 17.9602 10.2275 180.041 55.577 173.233
lowerback 4.61028 0.964664 0.21143
upperback 2.03545 1.35823 1.13743
thorax -0.517066 0.699002 0.97973
lowerneck -5.61887 -1.80934 -6.08584
upperneck 21.1157 -0.986163 0.371953
head 7.45655 -0.612582 1.10385
rclavicle 1.05356e-014 -3.33958e-014
rhumerus -31.6096 -0.645243 -79.5774
rradius 30.4595
rwrist -6.91364
rhand -12.3603 15.2149
rfingers 7.12502
rthumb 13.7098 -14.3135
lclavicle 1.05356e-014 -3.33958e-014
lhumerus -35.8438 -13.6828 91.3358
lradius 51.0996
lwrist 15.8988
lhand -4.83293 27.4516
lfingers 7.12502
lthumb 20.9539 56.3398
rfemur -14.4186 1.40523 20.4935
rtibia 26.3565
rfoot -18.5298 -14.5186
rtoes -1.12511
lfemur -21.1966 -9.67847 -19.8102
ltibia 28.8658
lfoot -11.9997 4.88597
ltoes -12.5669
785
root -16.5016 17.9566 10.2377 179.891 55.3255 172.977
lowerback 4.52316 0.920099 0.173448
upperback 2.01082 1.29528 1.12289
thorax -0.493262 0.666814 0.990559
lowerneck -5.53982 -1.83839 -6.04913
upperneck 21.0669 -1.02316 0.307859
head 7.4272 -0.6314 1.07391
rclavicle -1.76918e-014 -1.98785e-014
rhumerus -31.6219 -1.19675 -79.3126
rradius 30.045
rwrist -6.15895
rhand -12.2873 15.6011
rfingers 7.12502
rthumb 13.7801 -13.9225
lclavicle -1.76918e-014 -1.98785e-014
lhumerus -35.806 -13.72 91.4185
lradius 51.2828
lwrist 15.9049
lhand -4.74188 27.311
lfingers 7.12502
lthumb 21.0414 56.1894
rfemur -14.5025 1.18002 20.357
rtibia 26.4683
rfoot -18.5578 -14.5005
rtoes -1.13742
lfemur -21.3025 -9.30669 -20.227
ltibia 29.1491
lfoot -12.2289 4.84445
ltoes -11.9576
